<?xml version="1.0" encoding="UTF-8"?>
<svg id="Layer_1" data-name="Layer 1" xmlns="http://www.w3.org/2000/svg" xmlns:xlink="http://www.w3.org/1999/xlink" viewBox="0 0 288 288">
  <defs>
    <style>
      .cls-1 {
        fill: none;
      }

      .cls-2 {
        clip-path: url(#clippath-1);
      }

      .cls-3 {
        clip-path: url(#clippath-2);
      }

      .cls-4 {
        fill: #fff;
      }

      .cls-5 {
        opacity: .51;
      }

      .cls-6 {
        fill: #659ad2;
      }

      .cls-7 {
        clip-path: url(#clippath);
      }
    </style>
    <clipPath id="clippath">
      <rect class="cls-1" x="40.64" y="42.2" width="206.72" height="203.59"/>
    </clipPath>
    <clipPath id="clippath-1">
      <rect class="cls-1" x="40.64" y="42.2" width="206.72" height="203.59"/>
    </clipPath>
    <clipPath id="clippath-2">
      <rect class="cls-1" x="-28.58" y="-18.87" width="345.16" height="268.74"/>
    </clipPath>
  </defs>
  <g class="cls-7">
    <g class="cls-2">
      <g class="cls-5">
        <g class="cls-3">
          <path class="cls-6" d="M40.64,151.8c0-51.91,41.03-93.99,91.62-93.99s91.62,42.08,91.62,93.99-41.02,93.99-91.62,93.99-91.62-42.08-91.62-93.99"/>
          <path class="cls-6" d="M64.12,136.19c0-51.91,41.03-93.98,91.62-93.98s91.62,42.08,91.62,93.98-41.02,93.98-91.62,93.98-91.62-42.08-91.62-93.98"/>
          <path class="cls-6" d="M144.2,236.16c-49.65,0-90.04-41.44-90.04-92.37s40.39-92.37,90.04-92.37,90.03,41.44,90.03,92.37-40.39,92.37-90.03,92.37"/>
          <path class="cls-4" d="M144.2,45.04c-53.08,0-96.27,44.3-96.27,98.75s43.19,98.76,96.27,98.76,96.26-44.3,96.26-98.76-43.18-98.75-96.26-98.75M144.2,57.81c46.28,0,83.8,38.49,83.8,85.98s-37.52,85.98-83.8,85.98-83.82-38.49-83.82-85.98,37.53-85.98,83.82-85.98"/>
          <path class="cls-4" d="M99.72,70.37c11.42-1.79,28.63,4.26,44.67,4.26,21.74,0,39.24-10.96,55.08-2.13,10.24,5.71,16.97,24.35,15.57,43.69-1.6,22.23-12.11,35.19-16.62,59.69-3.54,19.24-4.62,56.85-17.66,58.62-11.38,1.53-15.9-15.66-19.74-26.64-2.93-8.37-7.54-29.09-15.59-29.85-17.9-1.68-15.65,59.36-37.4,56.49-13.21-1.75-15.08-44.57-17.67-58.62-4.17-22.68-15.15-39.32-16.62-58.62-2.02-26.49,6.52-43.86,25.98-46.89"/>
          <path class="cls-6" d="M115.38,79.01c.75,3.82,3.7,13.37,13.36,15.48,8.76,1.92,18.97-10,29.56-7.51,9.6,2.26,15.84,10.99,17.88,18.27,0,0-4-7.14-12.5-10.12-10.02-3.51-22.05,9.5-30.7,8.96-19.23-1.2-17.69-25.52-17.59-25.07"/>
        </g>
      </g>
    </g>
  </g>
</svg>